HIERARCHY
ROOT joint_Root
{
  OFFSET 0 0 0
  CHANNELS 6 Xposition Yposition Zposition Zrotation Xrotation Yrotation
  JOINT Hips
  {
    OFFSET 0.847027 93.984 -452.225
    CHANNELS 6 Xposition Yposition Zposition Zrotation Xrotation Yrotation
    JOINT Spine
    {
      OFFSET 15.7357 0 0
      CHANNELS 6 Xposition Yposition Zposition Zrotation Xrotation Yrotation
      JOINT Chest
      {
        OFFSET 8.98455 -0.406207 0
        CHANNELS 6 Xposition Yposition Zposition Zrotation Xrotation Yrotation
        JOINT Neck
        {
          OFFSET 16.3773 0 0
          CHANNELS 6 Xposition Yposition Zposition Zrotation Xrotation Yrotation
          JOINT Head
          {
            OFFSET 6.45672 0 0
            CHANNELS 6 Xposition Yposition Zposition Zrotation Xrotation Yrotation
            End Site
            {
              OFFSET 0 0 0
            }
          }
        }
        JOINT Shoulder_L
        {
          OFFSET 12.9942 -0.242716 4.98039
          CHANNELS 6 Xposition Yposition Zposition Zrotation Xrotation Yrotation
          JOINT UpperArm_L
          {
            OFFSET 5.34809 0 0
            CHANNELS 6 Xposition Yposition Zposition Zrotation Xrotation Yrotation
            JOINT LowerArm_L
            {
              OFFSET 24.3286 1.87007e-05 0
              CHANNELS 6 Xposition Yposition Zposition Zrotation Xrotation Yrotation
              JOINT Hand_L
              {
                OFFSET 22.2916 0 0
                CHANNELS 6 Xposition Yposition Zposition Zrotation Xrotation Yrotation
                End Site
                {
                  OFFSET 0 0 0
                }
              }
            }
          }
        }
        JOINT Shoulder_R
        {
          OFFSET 12.9945 -0.242716 -4.98039
          CHANNELS 6 Xposition Yposition Zposition Zrotation Xrotation Yrotation
          JOINT UpperArm_R
          {
            OFFSET -5.34813 0 0
            CHANNELS 6 Xposition Yposition Zposition Zrotation Xrotation Yrotation
            JOINT LowerArm_R
            {
              OFFSET -24.3289 0.000322201 0
              CHANNELS 6 Xposition Yposition Zposition Zrotation Xrotation Yrotation
              JOINT Hand_R
              {
                OFFSET -22.2915 -0.000108084 0
                CHANNELS 6 Xposition Yposition Zposition Zrotation Xrotation Yrotation
                End Site
                {
                  OFFSET 0 0 0
                }
              }
            }
          }
        }
      }
    }
    JOINT UpperLeg_L
    {
      OFFSET -2.19248 -6.46944 0
      CHANNELS 6 Xposition Yposition Zposition Zrotation Xrotation Yrotation
      JOINT LowerLeg_L
      {
        OFFSET 39.0811 0 -1.23785e-05
        CHANNELS 6 Xposition Yposition Zposition Zrotation Xrotation Yrotation
        JOINT Foot_L
        {
          OFFSET 40.9854 0 -1.26872e-05
          CHANNELS 6 Xposition Yposition Zposition Zrotation Xrotation Yrotation
          JOINT Toes_L
          {
            OFFSET 11.7543 0 0
            CHANNELS 6 Xposition Yposition Zposition Zrotation Xrotation Yrotation
            End Site
            {
              OFFSET 0 0 0
            }
          }
        }
      }
    }
    JOINT UpperLeg_R
    {
      OFFSET -2.19251 6.46944 0
      CHANNELS 6 Xposition Yposition Zposition Zrotation Xrotation Yrotation
      JOINT LowerLeg_R
      {
        OFFSET -39.0811 -0.00228153 -0.0401928
        CHANNELS 6 Xposition Yposition Zposition Zrotation Xrotation Yrotation
        JOINT Foot_R
        {
          OFFSET -40.9854 0 0
          CHANNELS 6 Xposition Yposition Zposition Zrotation Xrotation Yrotation
          JOINT Toes_R
          {
            OFFSET -11.7543 0 0
            CHANNELS 6 Xposition Yposition Zposition Zrotation Xrotation Yrotation
            End Site
            {
              OFFSET 0 0 0
            }
          }
        }
      }
    }
  }
}
MOTION
Frames:	4
Frame Time:	0.0333333
0 0 0 0 0 -0 49.3101 88.3352 -58.3979 87.0487 -66.135 -7.44229 15.7357 5.1072e-06 -5.51765e-07 98.5505 82.1194 -100.855 8.98455 -0.406207 -4.3199e-07 7.876 2.33135 -4.76477 16.3773 -1.3905e-06 -6.99897e-07 -1.3407 14.7172 1.181 6.45672 -1.25837e-06 -1.02172e-07 -13.4537 24.2899 1.5157 12.9942 -0.242716 4.98039 -90.9581 2.84335 -86.3709 5.34809 -7.22636e-06 -6.2814e-07 -67.1342 7.69394 -5.66473 24.3286 1.87007e-05 4.90208e-06 -1.25336 -2.73571 -24.6032 22.2916 -9.88446e-07 4.63217e-06 20.2049 5.53804 -8.15092 12.9945 -0.242716 -4.98039 88.7621 9.29121 -97.3767 -5.34813 -1.25947e-06 -3.79883e-06 -62.7409 7.86421 0.114898 -24.3289 0.000322201 -8.65921e-06 9.08887 11.2335 -39.3968 -22.2915 -0.000108084 -4.47941e-06 9.46247 5.36149 -1.72574 -2.19248 -6.46944 -1.22534e-07 -174.719 2.9459 -29.3725 39.0811 -6.73843e-06 -1.23785e-05 0.0142746 -0.00816064 45.0149 40.9854 -6.48686e-06 -1.26872e-05 -0.542826 3.47115 -69.4342 11.7543 -2.30145e-07 3.05095e-06 -0.0011157 0.00172959 -16.5464 -2.19251 6.46944 -1.45247e-06 177.236 24.1247 159.584 -39.0811 -0.00228153 -0.0401928 0.707144 -0.283014 67.4681 -40.9854 7.72618e-06 5.99936e-06 -7.48665 1.36753 -53.6786 -11.7543 -5.6619e-06 -5.58687e-06 0.27559 -0.323758 -19.7006 
0 0 0 0 0 -0 46.8386 88.9538 -58.0943 85.7085 -65.9691 -8.66595 15.7357 5.1072e-06 -5.51765e-07 97.6054 82.2494 -99.683 8.98455 -0.406207 -4.3199e-07 7.64315 2.04568 -4.28796 16.3773 -1.3905e-06 -6.99897e-07 -1.63629 14.6239 1.14505 6.45672 -1.25837e-06 -1.02172e-07 -13.9052 24.2101 1.32282 12.9942 -0.242716 4.98039 -90.8894 2.64704 -86.4206 5.34809 -7.22636e-06 -6.2814e-07 -66.6987 8.49379 -7.35019 24.3286 1.87007e-05 4.90208e-06 -2.39693 -4.27138 -29.3329 22.2916 -9.88446e-07 4.63217e-06 21.2246 5.553 -8.84594 12.9945 -0.242716 -4.98039 88.7367 9.3858 -97.2987 -5.34813 -1.25947e-06 -3.79883e-06 -63.843 8.27645 2.47696 -24.3289 0.000322201 -8.65921e-06 9.16297 11.7215 -38.4526 -22.2915 -0.000108084 -4.47941e-06 9.14698 5.36719 -1.89971 -2.19248 -6.46944 -1.22534e-07 -173.705 3.07941 -26.5723 39.0811 -6.73843e-06 -1.23785e-05 0.0199701 -0.0140019 43.0271 40.9854 -6.48686e-06 -1.26872e-05 -1.00947 3.52426 -69.9701 11.7543 -2.30145e-07 3.05095e-06 0.00192267 -0.0029327 -16.6295 -2.19251 6.46944 -1.45247e-06 177.703 24.6747 156.903 -39.0811 -0.00228153 -0.0401928 0.697225 -0.26561 68.5297 -40.9854 7.72618e-06 5.99936e-06 -6.16282 0.847926 -55.4215 -11.7543 -5.6619e-06 -5.58687e-06 0.264975 -0.310591 -19.5764 
0 0 0 0 0 -0 44.5893 89.6347 -57.8753 84.3799 -65.9081 -10.046 15.7357 5.1072e-06 -5.51765e-07 96.3427 82.3858 -98.1402 8.98455 -0.406207 -4.3199e-07 7.40059 1.68173 -3.70009 16.3773 -1.3905e-06 -6.99897e-07 -1.807 14.598 1.07558 6.45672 -1.25837e-06 -1.02172e-07 -14.2441 24.297 1.09354 12.9942 -0.242716 4.98039 -90.7596 2.27327 -86.5184 5.34809 -7.22636e-06 -6.2814e-07 -66.5298 8.81199 -8.59394 24.3286 1.87007e-05 4.90208e-06 -2.92993 -4.27274 -34.4874 22.2916 -9.88446e-07 4.63217e-06 22.5887 5.56557 -9.45953 12.9945 -0.242716 -4.98039 88.7445 9.24845 -97.2344 -5.34813 -1.25947e-06 -3.79883e-06 -64.9271 8.1121 4.40342 -24.3289 0.000322201 -8.65921e-06 9.08305 12.0344 -37.4835 -22.2915 -0.000108084 -4.47941e-06 8.64235 5.36992 -1.98435 -2.19248 -6.46944 -1.22534e-07 -172.76 2.90443 -23.8792 39.0811 -6.73843e-06 -1.23785e-05 0.0279134 -0.0246441 40.5245 40.9854 -6.48686e-06 -1.26872e-05 -1.24403 3.6515 -69.9416 11.7543 -2.30145e-07 3.05095e-06 0.0109406 -0.0169545 -16.8808 -2.19251 6.46944 -1.45247e-06 178.271 25.1648 154.543 -39.0811 -0.00228153 -0.0401928 0.641749 -0.278069 66.0444 -40.9854 7.72618e-06 5.99936e-06 -5.92671 0.335761 -56.286 -11.7543 -5.6619e-06 -5.58687e-06 0.265481 -0.311214 -19.5822 
0 0 0 0 0 -0 42.5055 90.2577 -57.7627 83.2766 -65.7686 -11.3147 15.7357 5.1072e-06 -5.51765e-07 94.7526 82.4814 -96.2232 8.98455 -0.406207 -4.3199e-07 7.23842 1.24809 -3.01712 16.3773 -1.3905e-06 -6.99897e-07 -1.88753 14.55 1.02458 6.45672 -1.25837e-06 -1.02172e-07 -14.3556 24.5627 0.796487 12.9942 -0.242716 4.98039 -90.6031 1.82356 -86.6963 5.34809 -7.22636e-06 -6.2814e-07 -66.3886 9.0711 -9.84202 24.3286 1.87007e-05 4.90208e-06 -3.36934 -4.14912 -39.1334 22.2916 -9.88446e-07 4.63217e-06 23.7941 5.57984 -10.1996 12.9945 -0.242716 -4.98039 88.7541 9.00915 -97.0929 -5.34813 -1.25947e-06 -3.79883e-06 -65.6837 7.606 5.9789 -24.3289 0.000322201 -8.65921e-06 9.11795 12.3579 -36.8703 -22.2915 -0.000108084 -4.47941e-06 8.08579 5.3678 -1.91829 -2.19248 -6.46944 -1.22534e-07 -171.854 2.63214 -21.4709 39.0811 -6.73843e-06 -1.23785e-05 0.0366217 -0.0385828 37.9718 40.9854 -6.48686e-06 -1.26872e-05 -1.4878 3.95309 -69.5156 11.7543 -2.30145e-07 3.05095e-06 0.0241045 -0.0376405 -17.2496 -2.19251 6.46944 -1.45247e-06 178.922 25.77 152.8 -39.0811 -0.00228153 -0.0401928 0.528721 -0.292638 60.4998 -40.9854 7.72618e-06 5.99936e-06 -5.74633 0.722303 -57.8043 -11.7543 -5.6619e-06 -5.58687e-06 0.23171 -0.269732 -19.1888 
